<mxfile host="embed.diagrams.net" modified="2020-08-21T03:32:45.657Z" agent="5.0 (Macintosh; Intel Mac OS X 10_15_5) AppleWebKit/537.36 (KHTML, like Gecko) Code/1.48.0 Chrome/78.0.3904.130 Electron/7.3.2 Safari/537.36" etag="DTiNo6wNJcXo4sfoL-Fk" version="13.6.4">
    <diagram id="6hGFLwfOUW9BJ-s0fimq" name="Page-1">
        <mxGraphModel dx="1621" dy="1153" grid="1" gridSize="10" guides="1" tooltips="1" connect="1" arrows="1" fold="1" page="1" pageScale="1" pageWidth="2336" pageHeight="1654" math="0" shadow="0">
            <root>
                <mxCell id="0"/>
                <mxCell id="1" parent="0"/>
                <mxCell id="382" style="edgeStyle=orthogonalEdgeStyle;rounded=0;orthogonalLoop=1;jettySize=auto;html=1;exitX=0.75;exitY=0;exitDx=0;exitDy=0;endArrow=ERzeroToMany;endFill=1;" parent="1" source="205" target="312" edge="1">
                    <mxGeometry relative="1" as="geometry">
                        <Array as="points">
                            <mxPoint x="1560" y="660"/>
                            <mxPoint x="1560" y="525"/>
                        </Array>
                    </mxGeometry>
                </mxCell>
                <mxCell id="372" style="edgeStyle=orthogonalEdgeStyle;rounded=0;orthogonalLoop=1;jettySize=auto;html=1;exitX=0.25;exitY=0;exitDx=0;exitDy=0;entryX=0.093;entryY=1.033;entryDx=0;entryDy=0;entryPerimeter=0;endArrow=ERzeroToMany;endFill=1;" parent="1" source="77" target="325" edge="1">
                    <mxGeometry relative="1" as="geometry"/>
                </mxCell>
                <mxCell id="374" style="edgeStyle=orthogonalEdgeStyle;rounded=0;orthogonalLoop=1;jettySize=auto;html=1;exitX=0.75;exitY=0;exitDx=0;exitDy=0;entryX=0.375;entryY=0.978;entryDx=0;entryDy=0;entryPerimeter=0;endArrow=ERzeroToMany;endFill=1;" parent="1" source="77" target="289" edge="1">
                    <mxGeometry relative="1" as="geometry"/>
                </mxCell>
                <mxCell id="376" style="edgeStyle=orthogonalEdgeStyle;rounded=0;orthogonalLoop=1;jettySize=auto;html=1;exitX=0;exitY=0;exitDx=0;exitDy=0;entryX=0.738;entryY=0.962;entryDx=0;entryDy=0;entryPerimeter=0;endArrow=ERzeroToMany;endFill=1;" parent="1" source="77" target="282" edge="1">
                    <mxGeometry relative="1" as="geometry"/>
                </mxCell>
                <mxCell id="387" style="edgeStyle=orthogonalEdgeStyle;rounded=0;orthogonalLoop=1;jettySize=auto;html=1;exitX=1;exitY=0.5;exitDx=0;exitDy=0;entryX=0;entryY=0.295;entryDx=0;entryDy=0;entryPerimeter=0;endArrow=ERzeroToMany;endFill=1;" parent="1" source="77" target="297" edge="1">
                    <mxGeometry relative="1" as="geometry"/>
                </mxCell>
                <mxCell id="380" style="edgeStyle=orthogonalEdgeStyle;rounded=0;orthogonalLoop=1;jettySize=auto;html=1;exitX=1;exitY=0.5;exitDx=0;exitDy=0;entryX=0.003;entryY=0.109;entryDx=0;entryDy=0;entryPerimeter=0;endArrow=ERzeroToMany;endFill=1;" parent="1" source="243" target="172" edge="1">
                    <mxGeometry relative="1" as="geometry"/>
                </mxCell>
                <mxCell id="385" style="edgeStyle=orthogonalEdgeStyle;rounded=0;orthogonalLoop=1;jettySize=auto;html=1;exitX=1;exitY=0.5;exitDx=0;exitDy=0;entryX=0;entryY=0.5;entryDx=0;entryDy=0;endArrow=ERzeroToMany;endFill=1;" parent="1" source="244" target="339" edge="1">
                    <mxGeometry relative="1" as="geometry"/>
                </mxCell>
                <mxCell id="389" style="edgeStyle=orthogonalEdgeStyle;rounded=0;orthogonalLoop=1;jettySize=auto;html=1;exitX=0;exitY=0.5;exitDx=0;exitDy=0;entryX=1;entryY=0.125;entryDx=0;entryDy=0;entryPerimeter=0;endArrow=ERzeroToOne;endFill=1;" parent="1" source="346" target="139" edge="1">
                    <mxGeometry relative="1" as="geometry"/>
                </mxCell>
                <mxCell id="390" style="edgeStyle=orthogonalEdgeStyle;rounded=0;orthogonalLoop=1;jettySize=auto;html=1;exitX=1;exitY=0.5;exitDx=0;exitDy=0;entryX=0.103;entryY=-0.014;entryDx=0;entryDy=0;entryPerimeter=0;endArrow=ERzeroToMany;endFill=1;" parent="1" target="117" edge="1">
                    <mxGeometry relative="1" as="geometry">
                        <Array as="points">
                            <mxPoint x="1100" y="967"/>
                            <mxPoint x="1100" y="950"/>
                            <mxPoint x="1153" y="950"/>
                        </Array>
                        <mxPoint x="1080" y="1357" as="sourcePoint"/>
                    </mxGeometry>
                </mxCell>
                <mxCell id="393" style="edgeStyle=orthogonalEdgeStyle;rounded=0;orthogonalLoop=1;jettySize=auto;html=1;exitX=0;exitY=0.5;exitDx=0;exitDy=0;entryX=0.878;entryY=0.01;entryDx=0;entryDy=0;entryPerimeter=0;endArrow=ERzeroToMany;endFill=1;" parent="1" source="338" target="117" edge="1">
                    <mxGeometry relative="1" as="geometry"/>
                </mxCell>
                <mxCell id="394" style="edgeStyle=orthogonalEdgeStyle;rounded=0;orthogonalLoop=1;jettySize=auto;html=1;exitX=0;exitY=0.5;exitDx=0;exitDy=0;entryX=1.004;entryY=0.865;entryDx=0;entryDy=0;entryPerimeter=0;endArrow=ERzeroToMany;endFill=1;" parent="1" target="307" edge="1">
                    <mxGeometry relative="1" as="geometry">
                        <mxPoint x="1480" y="1149" as="sourcePoint"/>
                    </mxGeometry>
                </mxCell>
                <mxCell id="395" style="edgeStyle=orthogonalEdgeStyle;rounded=0;orthogonalLoop=1;jettySize=auto;html=1;exitX=0;exitY=0.5;exitDx=0;exitDy=0;entryX=0;entryY=0.5;entryDx=0;entryDy=0;endArrow=ERzeroToMany;endFill=1;" parent="1" target="307" edge="1">
                    <mxGeometry relative="1" as="geometry">
                        <Array as="points">
                            <mxPoint x="640" y="1305"/>
                        </Array>
                        <mxPoint x="680" y="1357" as="sourcePoint"/>
                    </mxGeometry>
                </mxCell>
                <mxCell id="397" style="edgeStyle=orthogonalEdgeStyle;rounded=0;orthogonalLoop=1;jettySize=auto;html=1;exitX=0;exitY=0.5;exitDx=0;exitDy=0;entryX=1;entryY=0.5;entryDx=0;entryDy=0;endArrow=ERzeroToMany;endFill=1;" parent="1" source="253" target="320" edge="1">
                    <mxGeometry relative="1" as="geometry">
                        <Array as="points">
                            <mxPoint x="680" y="830"/>
                            <mxPoint x="540" y="830"/>
                        </Array>
                    </mxGeometry>
                </mxCell>
                <mxCell id="401" style="edgeStyle=orthogonalEdgeStyle;rounded=0;orthogonalLoop=1;jettySize=auto;html=1;exitX=1;exitY=0.5;exitDx=0;exitDy=0;entryX=0.006;entryY=0.269;entryDx=0;entryDy=0;entryPerimeter=0;endArrow=ERmany;endFill=0;" parent="1" source="340" target="299" edge="1">
                    <mxGeometry relative="1" as="geometry"/>
                </mxCell>
                <mxCell id="402" style="edgeStyle=orthogonalEdgeStyle;rounded=0;orthogonalLoop=1;jettySize=auto;html=1;exitX=1;exitY=0.5;exitDx=0;exitDy=0;entryX=0;entryY=0.5;entryDx=0;entryDy=0;endArrow=ERmany;endFill=0;" parent="1" source="339" target="329" edge="1">
                    <mxGeometry relative="1" as="geometry"/>
                </mxCell>
                <mxCell id="403" style="edgeStyle=orthogonalEdgeStyle;rounded=0;orthogonalLoop=1;jettySize=auto;html=1;exitX=1;exitY=0.5;exitDx=0;exitDy=0;entryX=0;entryY=0.5;entryDx=0;entryDy=0;endArrow=ERzeroToMany;endFill=1;" parent="1" source="341" target="315" edge="1">
                    <mxGeometry relative="1" as="geometry"/>
                </mxCell>
                <mxCell id="77" value="users" style="swimlane;fontStyle=0;childLayout=stackLayout;horizontal=1;startSize=26;horizontalStack=0;resizeParent=1;resizeParentMax=0;resizeLast=0;collapsible=1;marginBottom=0;align=center;fontSize=14;" parent="1" vertex="1">
                    <mxGeometry x="680" y="660" width="400" height="658" as="geometry"/>
                </mxCell>
                <mxCell id="243" value="nickname ( string / null: false, index: true, unique: true )" style="text;strokeColor=none;fillColor=none;spacingLeft=4;spacingRight=4;overflow=hidden;rotatable=0;points=[[0,0.5],[1,0.5]];portConstraint=eastwest;fontSize=12;" parent="77" vertex="1">
                    <mxGeometry y="26" width="400" height="26" as="geometry"/>
                </mxCell>
                <mxCell id="244" value="email ( string / null: false, index: true, unique: true)" style="text;strokeColor=none;fillColor=none;spacingLeft=4;spacingRight=4;overflow=hidden;rotatable=0;points=[[0,0.5],[1,0.5]];portConstraint=eastwest;fontSize=12;" parent="77" vertex="1">
                    <mxGeometry y="52" width="400" height="26" as="geometry"/>
                </mxCell>
                <mxCell id="245" value="encrypted_password ( string / null: false )" style="text;strokeColor=none;fillColor=none;spacingLeft=4;spacingRight=4;overflow=hidden;rotatable=0;points=[[0,0.5],[1,0.5]];portConstraint=eastwest;fontSize=12;" parent="77" vertex="1">
                    <mxGeometry y="78" width="400" height="26" as="geometry"/>
                </mxCell>
                <mxCell id="263" value="family_name ( string / null: false )" style="text;strokeColor=none;fillColor=none;spacingLeft=4;spacingRight=4;overflow=hidden;rotatable=0;points=[[0,0.5],[1,0.5]];portConstraint=eastwest;fontSize=12;" parent="77" vertex="1">
                    <mxGeometry y="104" width="400" height="26" as="geometry"/>
                </mxCell>
                <mxCell id="270" value="first_name ( string / null: false )" style="text;strokeColor=none;fillColor=none;spacingLeft=4;spacingRight=4;overflow=hidden;rotatable=0;points=[[0,0.5],[1,0.5]];portConstraint=eastwest;fontSize=12;" parent="77" vertex="1">
                    <mxGeometry y="130" width="400" height="26" as="geometry"/>
                </mxCell>
                <mxCell id="269" value="family_name_furigana ( string / null: false )" style="text;strokeColor=none;fillColor=none;spacingLeft=4;spacingRight=4;overflow=hidden;rotatable=0;points=[[0,0.5],[1,0.5]];portConstraint=eastwest;fontSize=12;" parent="77" vertex="1">
                    <mxGeometry y="156" width="400" height="26" as="geometry"/>
                </mxCell>
                <mxCell id="268" value="first_name_furigana ( string / null: false )" style="text;strokeColor=none;fillColor=none;spacingLeft=4;spacingRight=4;overflow=hidden;rotatable=0;points=[[0,0.5],[1,0.5]];portConstraint=eastwest;fontSize=12;" parent="77" vertex="1">
                    <mxGeometry y="182" width="400" height="26" as="geometry"/>
                </mxCell>
                <mxCell id="267" value="birth_day ( date / null: false )" style="text;strokeColor=none;fillColor=none;spacingLeft=4;spacingRight=4;overflow=hidden;rotatable=0;points=[[0,0.5],[1,0.5]];portConstraint=eastwest;fontSize=12;" parent="77" vertex="1">
                    <mxGeometry y="208" width="400" height="26" as="geometry"/>
                </mxCell>
                <mxCell id="456" value="family_name_to_deliver ( string / null: false )" style="text;strokeColor=none;fillColor=none;spacingLeft=4;spacingRight=4;overflow=hidden;rotatable=0;points=[[0,0.5],[1,0.5]];portConstraint=eastwest;fontSize=12;" parent="77" vertex="1">
                    <mxGeometry y="234" width="400" height="26" as="geometry"/>
                </mxCell>
                <mxCell id="457" value="first_name_to_deliver ( string / null: false )" style="text;strokeColor=none;fillColor=none;spacingLeft=4;spacingRight=4;overflow=hidden;rotatable=0;points=[[0,0.5],[1,0.5]];portConstraint=eastwest;fontSize=12;" parent="77" vertex="1">
                    <mxGeometry y="260" width="400" height="26" as="geometry"/>
                </mxCell>
                <mxCell id="459" value="family_name_to_deliver_furigana ( string / null: false )" style="text;strokeColor=none;fillColor=none;spacingLeft=4;spacingRight=4;overflow=hidden;rotatable=0;points=[[0,0.5],[1,0.5]];portConstraint=eastwest;fontSize=12;" parent="77" vertex="1">
                    <mxGeometry y="286" width="400" height="26" as="geometry"/>
                </mxCell>
                <mxCell id="458" value="first_name_to_deliver_furigana ( string / null: false )" style="text;strokeColor=none;fillColor=none;spacingLeft=4;spacingRight=4;overflow=hidden;rotatable=0;points=[[0,0.5],[1,0.5]];portConstraint=eastwest;fontSize=12;" parent="77" vertex="1">
                    <mxGeometry y="312" width="400" height="26" as="geometry"/>
                </mxCell>
                <mxCell id="264" value="postal_code ( integer / null: false )" style="text;strokeColor=none;fillColor=none;spacingLeft=4;spacingRight=4;overflow=hidden;rotatable=0;points=[[0,0.5],[1,0.5]];portConstraint=eastwest;fontSize=12;" parent="77" vertex="1">
                    <mxGeometry y="338" width="400" height="26" as="geometry"/>
                </mxCell>
                <mxCell id="262" value="prefecture_id ( integer / null: false )" style="text;strokeColor=none;fillColor=none;spacingLeft=4;spacingRight=4;overflow=hidden;rotatable=0;points=[[0,0.5],[1,0.5]];portConstraint=eastwest;fontSize=12;" parent="77" vertex="1">
                    <mxGeometry y="364" width="400" height="26" as="geometry"/>
                </mxCell>
                <mxCell id="261" value="municipalities ( string / null: false )" style="text;strokeColor=none;fillColor=none;spacingLeft=4;spacingRight=4;overflow=hidden;rotatable=0;points=[[0,0.5],[1,0.5]];portConstraint=eastwest;fontSize=12;" parent="77" vertex="1">
                    <mxGeometry y="390" width="400" height="26" as="geometry"/>
                </mxCell>
                <mxCell id="260" value="address ( string / null: false )" style="text;strokeColor=none;fillColor=none;spacingLeft=4;spacingRight=4;overflow=hidden;rotatable=0;points=[[0,0.5],[1,0.5]];portConstraint=eastwest;fontSize=12;" parent="77" vertex="1">
                    <mxGeometry y="416" width="400" height="26" as="geometry"/>
                </mxCell>
                <mxCell id="259" value="building ( string )" style="text;strokeColor=none;fillColor=none;spacingLeft=4;spacingRight=4;overflow=hidden;rotatable=0;points=[[0,0.5],[1,0.5]];portConstraint=eastwest;fontSize=12;" parent="77" vertex="1">
                    <mxGeometry y="442" width="400" height="26" as="geometry"/>
                </mxCell>
                <mxCell id="258" value="phone_number ( string )" style="text;strokeColor=none;fillColor=none;spacingLeft=4;spacingRight=4;overflow=hidden;rotatable=0;points=[[0,0.5],[1,0.5]];portConstraint=eastwest;fontSize=12;" parent="77" vertex="1">
                    <mxGeometry y="468" width="400" height="26" as="geometry"/>
                </mxCell>
                <mxCell id="247" value="" style="line;strokeWidth=1;fillColor=none;align=left;verticalAlign=middle;spacingTop=-1;spacingLeft=3;spacingRight=3;rotatable=0;labelPosition=right;points=[];portConstraint=eastwest;fontSize=12;" parent="77" vertex="1">
                    <mxGeometry y="494" width="400" height="8" as="geometry"/>
                </mxCell>
                <mxCell id="248" value="- has_many :bought_item, foreign_key: &quot;seller_id&quot;, class_name: &quot;Item&quot;" style="text;strokeColor=none;fillColor=none;spacingLeft=4;spacingRight=4;overflow=hidden;rotatable=0;points=[[0,0.5],[1,0.5]];portConstraint=eastwest;fontSize=12;" parent="77" vertex="1">
                    <mxGeometry y="502" width="400" height="26" as="geometry"/>
                </mxCell>
                <mxCell id="249" value="- has_many :sold_item, foreign_key: &quot;buyer_id&quot;, class_name: &quot;Item&quot;" style="text;strokeColor=none;fillColor=none;spacingLeft=4;spacingRight=4;overflow=hidden;rotatable=0;points=[[0,0.5],[1,0.5]];portConstraint=eastwest;fontSize=12;" parent="77" vertex="1">
                    <mxGeometry y="528" width="400" height="26" as="geometry"/>
                </mxCell>
                <mxCell id="246" value="- has_many :comments" style="text;strokeColor=none;fillColor=none;spacingLeft=4;spacingRight=4;overflow=hidden;rotatable=0;points=[[0,0.5],[1,0.5]];portConstraint=eastwest;fontSize=12;" parent="77" vertex="1">
                    <mxGeometry y="554" width="400" height="26" as="geometry"/>
                </mxCell>
                <mxCell id="254" value="- has_many :items" style="text;strokeColor=none;fillColor=none;spacingLeft=4;spacingRight=4;overflow=hidden;rotatable=0;points=[[0,0.5],[1,0.5]];portConstraint=eastwest;fontSize=12;" parent="77" vertex="1">
                    <mxGeometry y="580" width="400" height="26" as="geometry"/>
                </mxCell>
                <mxCell id="253" value="- has_one :credit_cards, dependent: :destroy" style="text;strokeColor=none;fillColor=none;spacingLeft=4;spacingRight=4;overflow=hidden;rotatable=0;points=[[0,0.5],[1,0.5]];portConstraint=eastwest;fontSize=12;" parent="77" vertex="1">
                    <mxGeometry y="606" width="400" height="26" as="geometry"/>
                </mxCell>
                <mxCell id="400" value="- belongs_to_active_hash :prefecture" style="text;strokeColor=none;fillColor=none;spacingLeft=4;spacingRight=4;overflow=hidden;rotatable=0;points=[[0,0.5],[1,0.5]];portConstraint=eastwest;fontSize=12;" parent="77" vertex="1">
                    <mxGeometry y="632" width="400" height="26" as="geometry"/>
                </mxCell>
                <mxCell id="128" value="points" style="swimlane;fontStyle=0;childLayout=stackLayout;horizontal=1;startSize=26;horizontalStack=0;resizeParent=1;resizeParentMax=0;resizeLast=0;collapsible=1;marginBottom=0;align=center;fontSize=14;fillColor=#6a00ff;strokeColor=#3700CC;fontColor=#ffffff;" parent="1" vertex="1">
                    <mxGeometry x="800" y="460" width="280" height="112" as="geometry"/>
                </mxCell>
                <mxCell id="290" value="point ( integer )" style="text;strokeColor=none;fillColor=none;spacingLeft=4;spacingRight=4;overflow=hidden;rotatable=0;points=[[0,0.5],[1,0.5]];portConstraint=eastwest;fontSize=12;" parent="128" vertex="1">
                    <mxGeometry y="26" width="280" height="26" as="geometry"/>
                </mxCell>
                <mxCell id="291" value="user_id ( references / null: false, foreign_key: true )" style="text;strokeColor=none;fillColor=none;spacingLeft=4;spacingRight=4;overflow=hidden;rotatable=0;points=[[0,0.5],[1,0.5]];portConstraint=eastwest;fontSize=12;" parent="128" vertex="1">
                    <mxGeometry y="52" width="280" height="26" as="geometry"/>
                </mxCell>
                <mxCell id="292" value="" style="line;strokeWidth=1;fillColor=none;align=left;verticalAlign=middle;spacingTop=-1;spacingLeft=3;spacingRight=3;rotatable=0;labelPosition=right;points=[];portConstraint=eastwest;fontSize=12;" parent="128" vertex="1">
                    <mxGeometry y="78" width="280" height="8" as="geometry"/>
                </mxCell>
                <mxCell id="289" value="- belongs_to :user" style="text;strokeColor=none;fillColor=none;spacingLeft=4;spacingRight=4;overflow=hidden;rotatable=0;points=[[0,0.5],[1,0.5]];portConstraint=eastwest;fontSize=12;" parent="128" vertex="1">
                    <mxGeometry y="86" width="280" height="26" as="geometry"/>
                </mxCell>
                <mxCell id="216" value="todos" style="swimlane;fontStyle=0;childLayout=stackLayout;horizontal=1;startSize=26;horizontalStack=0;resizeParent=1;resizeParentMax=0;resizeLast=0;collapsible=1;marginBottom=0;align=center;fontSize=14;fillColor=#6a00ff;strokeColor=#3700CC;fontColor=#ffffff;" parent="1" vertex="1">
                    <mxGeometry x="680" y="300" width="320" height="112" as="geometry"/>
                </mxCell>
                <mxCell id="323" value="user_id ( references / null: false, foreign_key: true )" style="text;strokeColor=none;fillColor=none;spacingLeft=4;spacingRight=4;overflow=hidden;rotatable=0;points=[[0,0.5],[1,0.5]];portConstraint=eastwest;fontSize=12;" parent="216" vertex="1">
                    <mxGeometry y="26" width="320" height="26" as="geometry"/>
                </mxCell>
                <mxCell id="324" value="text ( text / null: false )" style="text;strokeColor=none;fillColor=none;spacingLeft=4;spacingRight=4;overflow=hidden;rotatable=0;points=[[0,0.5],[1,0.5]];portConstraint=eastwest;fontSize=12;" parent="216" vertex="1">
                    <mxGeometry y="52" width="320" height="26" as="geometry"/>
                </mxCell>
                <mxCell id="326" value="" style="line;strokeWidth=1;fillColor=none;align=left;verticalAlign=middle;spacingTop=-1;spacingLeft=3;spacingRight=3;rotatable=0;labelPosition=right;points=[];portConstraint=eastwest;fontSize=12;" parent="216" vertex="1">
                    <mxGeometry y="78" width="320" height="8" as="geometry"/>
                </mxCell>
                <mxCell id="325" value="- belongs_to :user" style="text;strokeColor=none;fillColor=none;spacingLeft=4;spacingRight=4;overflow=hidden;rotatable=0;points=[[0,0.5],[1,0.5]];portConstraint=eastwest;fontSize=12;" parent="216" vertex="1">
                    <mxGeometry y="86" width="320" height="26" as="geometry"/>
                </mxCell>
                <mxCell id="106" value="cregit_cards" style="swimlane;fontStyle=0;childLayout=stackLayout;horizontal=1;startSize=26;horizontalStack=0;resizeParent=1;resizeParentMax=0;resizeLast=0;collapsible=1;marginBottom=0;align=center;fontSize=14;" parent="1" vertex="1">
                    <mxGeometry x="320" y="302" width="320" height="138" as="geometry"/>
                </mxCell>
                <mxCell id="279" value="card_id ( string / null: false )" style="text;strokeColor=none;fillColor=none;spacingLeft=4;spacingRight=4;overflow=hidden;rotatable=0;points=[[0,0.5],[1,0.5]];portConstraint=eastwest;fontSize=12;" parent="106" vertex="1">
                    <mxGeometry y="26" width="320" height="26" as="geometry"/>
                </mxCell>
                <mxCell id="278" value="customer_id ( string / null: false )" style="text;strokeColor=none;fillColor=none;spacingLeft=4;spacingRight=4;overflow=hidden;rotatable=0;points=[[0,0.5],[1,0.5]];portConstraint=eastwest;fontSize=12;" parent="106" vertex="1">
                    <mxGeometry y="52" width="320" height="26" as="geometry"/>
                </mxCell>
                <mxCell id="276" value="user_id ( references / null: false, foreign_key: true )" style="text;strokeColor=none;fillColor=none;spacingLeft=4;spacingRight=4;overflow=hidden;rotatable=0;points=[[0,0.5],[1,0.5]];portConstraint=eastwest;fontSize=12;" parent="106" vertex="1">
                    <mxGeometry y="78" width="320" height="26" as="geometry"/>
                </mxCell>
                <mxCell id="281" value="" style="line;strokeWidth=1;fillColor=none;align=left;verticalAlign=middle;spacingTop=-1;spacingLeft=3;spacingRight=3;rotatable=0;labelPosition=right;points=[];portConstraint=eastwest;fontSize=12;" parent="106" vertex="1">
                    <mxGeometry y="104" width="320" height="8" as="geometry"/>
                </mxCell>
                <mxCell id="282" value="- belongs_to :user" style="text;strokeColor=none;fillColor=none;spacingLeft=4;spacingRight=4;overflow=hidden;rotatable=0;points=[[0,0.5],[1,0.5]];portConstraint=eastwest;fontSize=12;" parent="106" vertex="1">
                    <mxGeometry y="112" width="320" height="26" as="geometry"/>
                </mxCell>
                <mxCell id="172" value="likes" style="swimlane;fontStyle=0;childLayout=stackLayout;horizontal=1;startSize=26;horizontalStack=0;resizeParent=1;resizeParentMax=0;resizeLast=0;collapsible=1;marginBottom=0;align=center;fontSize=14;fillColor=#1ba1e2;strokeColor=#006EAF;fontColor=#ffffff;" parent="1" vertex="1">
                    <mxGeometry x="1160" y="460" width="340" height="138" as="geometry"/>
                </mxCell>
                <mxCell id="310" value="user_id ( references / null: false, foreign_key: true )" style="text;strokeColor=none;fillColor=none;spacingLeft=4;spacingRight=4;overflow=hidden;rotatable=0;points=[[0,0.5],[1,0.5]];portConstraint=eastwest;fontSize=12;" parent="172" vertex="1">
                    <mxGeometry y="26" width="340" height="26" as="geometry"/>
                </mxCell>
                <mxCell id="312" value="item_id ( references / null: false, foreign_key: true )" style="text;strokeColor=none;fillColor=none;spacingLeft=4;spacingRight=4;overflow=hidden;rotatable=0;points=[[0,0.5],[1,0.5]];portConstraint=eastwest;fontSize=12;" parent="172" vertex="1">
                    <mxGeometry y="52" width="340" height="26" as="geometry"/>
                </mxCell>
                <mxCell id="314" value="" style="line;strokeWidth=1;fillColor=none;align=left;verticalAlign=middle;spacingTop=-1;spacingLeft=3;spacingRight=3;rotatable=0;labelPosition=right;points=[];portConstraint=eastwest;fontSize=12;" parent="172" vertex="1">
                    <mxGeometry y="78" width="340" height="8" as="geometry"/>
                </mxCell>
                <mxCell id="313" value="- belongs_to :user" style="text;strokeColor=none;fillColor=none;spacingLeft=4;spacingRight=4;overflow=hidden;rotatable=0;points=[[0,0.5],[1,0.5]];portConstraint=eastwest;fontSize=12;" parent="172" vertex="1">
                    <mxGeometry y="86" width="340" height="26" as="geometry"/>
                </mxCell>
                <mxCell id="311" value="- belongs_to :item" style="text;strokeColor=none;fillColor=none;spacingLeft=4;spacingRight=4;overflow=hidden;rotatable=0;points=[[0,0.5],[1,0.5]];portConstraint=eastwest;fontSize=12;" parent="172" vertex="1">
                    <mxGeometry y="112" width="340" height="26" as="geometry"/>
                </mxCell>
                <mxCell id="227" value="item_images" style="swimlane;fontStyle=0;childLayout=stackLayout;horizontal=1;startSize=26;horizontalStack=0;resizeParent=1;resizeParentMax=0;resizeLast=0;collapsible=1;marginBottom=0;align=center;fontSize=14;" parent="1" vertex="1">
                    <mxGeometry x="1920" y="660" width="250" height="112" as="geometry"/>
                </mxCell>
                <mxCell id="328" value="text ( string / null: false )" style="text;strokeColor=none;fillColor=none;spacingLeft=4;spacingRight=4;overflow=hidden;rotatable=0;points=[[0,0.5],[1,0.5]];portConstraint=eastwest;fontSize=12;" parent="227" vertex="1">
                    <mxGeometry y="26" width="250" height="26" as="geometry"/>
                </mxCell>
                <mxCell id="329" value="item_id ( string / null: false,foreign_key :true )" style="text;strokeColor=none;fillColor=none;spacingLeft=4;spacingRight=4;overflow=hidden;rotatable=0;points=[[0,0.5],[1,0.5]];portConstraint=eastwest;fontSize=12;" parent="227" vertex="1">
                    <mxGeometry y="52" width="250" height="26" as="geometry"/>
                </mxCell>
                <mxCell id="330" value="" style="line;strokeWidth=1;fillColor=none;align=left;verticalAlign=middle;spacingTop=-1;spacingLeft=3;spacingRight=3;rotatable=0;labelPosition=right;points=[];portConstraint=eastwest;fontSize=12;" parent="227" vertex="1">
                    <mxGeometry y="78" width="250" height="8" as="geometry"/>
                </mxCell>
                <mxCell id="327" value="- belongs_to :item" style="text;strokeColor=none;fillColor=none;spacingLeft=4;spacingRight=4;overflow=hidden;rotatable=0;points=[[0,0.5],[1,0.5]];portConstraint=eastwest;fontSize=12;" parent="227" vertex="1">
                    <mxGeometry y="86" width="250" height="26" as="geometry"/>
                </mxCell>
                <mxCell id="205" value="Items" style="swimlane;fontStyle=0;childLayout=stackLayout;horizontal=1;startSize=26;horizontalStack=0;resizeParent=1;resizeParentMax=0;resizeLast=0;collapsible=1;marginBottom=0;align=center;fontSize=14;swimlaneFillColor=none;" parent="1" vertex="1">
                    <mxGeometry x="1480" y="660" width="360" height="606" as="geometry"/>
                </mxCell>
                <mxCell id="331" value="name ( string / null: false )" style="text;strokeColor=none;fillColor=none;spacingLeft=4;spacingRight=4;overflow=hidden;rotatable=0;points=[[0,0.5],[1,0.5]];portConstraint=eastwest;fontSize=12;" parent="205" vertex="1">
                    <mxGeometry y="26" width="360" height="26" as="geometry"/>
                </mxCell>
                <mxCell id="339" value="explanation ( text / null: false )" style="text;strokeColor=none;fillColor=none;spacingLeft=4;spacingRight=4;overflow=hidden;rotatable=0;points=[[0,0.5],[1,0.5]];portConstraint=eastwest;fontSize=12;" parent="205" vertex="1">
                    <mxGeometry y="52" width="360" height="26" as="geometry"/>
                </mxCell>
                <mxCell id="342" value="price ( integer / null: false )" style="text;strokeColor=none;fillColor=none;spacingLeft=4;spacingRight=4;overflow=hidden;rotatable=0;points=[[0,0.5],[1,0.5]];portConstraint=eastwest;fontSize=12;" parent="205" vertex="1">
                    <mxGeometry y="78" width="360" height="26" as="geometry"/>
                </mxCell>
                <mxCell id="346" value="condition_id ( references / null: false, foreign_key: true )" style="text;strokeColor=none;fillColor=none;spacingLeft=4;spacingRight=4;overflow=hidden;rotatable=0;points=[[0,0.5],[1,0.5]];portConstraint=eastwest;fontSize=12;" parent="205" vertex="1">
                    <mxGeometry y="104" width="360" height="26" as="geometry"/>
                </mxCell>
                <mxCell id="337" value="delivery_fee_id ( references / null: false, foreign_key: true )" style="text;strokeColor=none;fillColor=none;spacingLeft=4;spacingRight=4;overflow=hidden;rotatable=0;points=[[0,0.5],[1,0.5]];portConstraint=eastwest;fontSize=12;" parent="205" vertex="1">
                    <mxGeometry y="130" width="360" height="26" as="geometry"/>
                </mxCell>
                <mxCell id="340" value="preparation_day_id ( references / null:false, foreign_key: true )" style="text;strokeColor=none;fillColor=none;spacingLeft=4;spacingRight=4;overflow=hidden;rotatable=0;points=[[0,0.5],[1,0.5]];portConstraint=eastwest;fontSize=12;" parent="205" vertex="1">
                    <mxGeometry y="156" width="360" height="26" as="geometry"/>
                </mxCell>
                <mxCell id="345" value="prefecture_id ( integer / null: false )" style="text;strokeColor=none;fillColor=none;spacingLeft=4;spacingRight=4;overflow=hidden;rotatable=0;points=[[0,0.5],[1,0.5]];portConstraint=eastwest;fontSize=12;" parent="205" vertex="1">
                    <mxGeometry y="182" width="360" height="26" as="geometry"/>
                </mxCell>
                <mxCell id="344" value="category_id ( references / null: false, foreign_key: true )" style="text;strokeColor=none;fillColor=none;spacingLeft=4;spacingRight=4;overflow=hidden;rotatable=0;points=[[0,0.5],[1,0.5]];portConstraint=eastwest;fontSize=12;" parent="205" vertex="1">
                    <mxGeometry y="208" width="360" height="26" as="geometry"/>
                </mxCell>
                <mxCell id="343" value="size_id ( references / null:false, foreign_key: true )" style="text;strokeColor=none;fillColor=none;spacingLeft=4;spacingRight=4;overflow=hidden;rotatable=0;points=[[0,0.5],[1,0.5]];portConstraint=eastwest;fontSize=12;" parent="205" vertex="1">
                    <mxGeometry y="234" width="360" height="26" as="geometry"/>
                </mxCell>
                <mxCell id="338" value="brand_id ( references / foreign_key: true )" style="text;strokeColor=none;fillColor=none;spacingLeft=4;spacingRight=4;overflow=hidden;rotatable=0;points=[[0,0.5],[1,0.5]];portConstraint=eastwest;fontSize=12;" parent="205" vertex="1">
                    <mxGeometry y="260" width="360" height="26" as="geometry"/>
                </mxCell>
                <mxCell id="335" value="seller_id ( references / null: false, foreign_key: true )" style="text;strokeColor=none;fillColor=none;spacingLeft=4;spacingRight=4;overflow=hidden;rotatable=0;points=[[0,0.5],[1,0.5]];portConstraint=eastwest;fontSize=12;" parent="205" vertex="1">
                    <mxGeometry y="286" width="360" height="26" as="geometry"/>
                </mxCell>
                <mxCell id="341" value="buyer_id ( refereces / null: false, foreign_key: true )" style="text;strokeColor=none;fillColor=none;spacingLeft=4;spacingRight=4;overflow=hidden;rotatable=0;points=[[0,0.5],[1,0.5]];portConstraint=eastwest;fontSize=12;" parent="205" vertex="1">
                    <mxGeometry y="312" width="360" height="26" as="geometry"/>
                </mxCell>
                <mxCell id="347" value="" style="line;strokeWidth=1;fillColor=none;align=left;verticalAlign=middle;spacingTop=-1;spacingLeft=3;spacingRight=3;rotatable=0;labelPosition=right;points=[];portConstraint=eastwest;fontSize=12;" parent="205" vertex="1">
                    <mxGeometry y="338" width="360" height="8" as="geometry"/>
                </mxCell>
                <mxCell id="336" value="- belongs_to :user" style="text;strokeColor=none;fillColor=none;spacingLeft=4;spacingRight=4;overflow=hidden;rotatable=0;points=[[0,0.5],[1,0.5]];portConstraint=eastwest;fontSize=12;" parent="205" vertex="1">
                    <mxGeometry y="346" width="360" height="26" as="geometry"/>
                </mxCell>
                <mxCell id="352" value="- belongs_to :category" style="text;strokeColor=none;fillColor=none;spacingLeft=4;spacingRight=4;overflow=hidden;rotatable=0;points=[[0,0.5],[1,0.5]];portConstraint=eastwest;fontSize=12;" parent="205" vertex="1">
                    <mxGeometry y="372" width="360" height="26" as="geometry"/>
                </mxCell>
                <mxCell id="354" value="- belongs_to :brand" style="text;strokeColor=none;fillColor=none;spacingLeft=4;spacingRight=4;overflow=hidden;rotatable=0;points=[[0,0.5],[1,0.5]];portConstraint=eastwest;fontSize=12;" parent="205" vertex="1">
                    <mxGeometry y="398" width="360" height="26" as="geometry"/>
                </mxCell>
                <mxCell id="351" value="- has_many :item_images, dependent: :destroy" style="text;strokeColor=none;fillColor=none;spacingLeft=4;spacingRight=4;overflow=hidden;rotatable=0;points=[[0,0.5],[1,0.5]];portConstraint=eastwest;fontSize=12;" parent="205" vertex="1">
                    <mxGeometry y="424" width="360" height="26" as="geometry"/>
                </mxCell>
                <mxCell id="355" value="- has_many :comments, dependent: :destroy" style="text;strokeColor=none;fillColor=none;spacingLeft=4;spacingRight=4;overflow=hidden;rotatable=0;points=[[0,0.5],[1,0.5]];portConstraint=eastwest;fontSize=12;" parent="205" vertex="1">
                    <mxGeometry y="450" width="360" height="26" as="geometry"/>
                </mxCell>
                <mxCell id="358" value="- belongs_to_active_hash :delivery_fee" style="text;strokeColor=none;fillColor=none;spacingLeft=4;spacingRight=4;overflow=hidden;rotatable=0;points=[[0,0.5],[1,0.5]];portConstraint=eastwest;fontSize=12;" parent="205" vertex="1">
                    <mxGeometry y="476" width="360" height="26" as="geometry"/>
                </mxCell>
                <mxCell id="360" value="- belongs_to_active_hash :preparation_day" style="text;strokeColor=none;fillColor=none;spacingLeft=4;spacingRight=4;overflow=hidden;rotatable=0;points=[[0,0.5],[1,0.5]];portConstraint=eastwest;fontSize=12;" parent="205" vertex="1">
                    <mxGeometry y="502" width="360" height="26" as="geometry"/>
                </mxCell>
                <mxCell id="359" value="- belongs_to_active_hash :category" style="text;strokeColor=none;fillColor=none;spacingLeft=4;spacingRight=4;overflow=hidden;rotatable=0;points=[[0,0.5],[1,0.5]];portConstraint=eastwest;fontSize=12;" parent="205" vertex="1">
                    <mxGeometry y="528" width="360" height="26" as="geometry"/>
                </mxCell>
                <mxCell id="477" value="- belongs_to_active_hash :prefecture" style="text;strokeColor=none;fillColor=none;spacingLeft=4;spacingRight=4;overflow=hidden;rotatable=0;points=[[0,0.5],[1,0.5]];portConstraint=eastwest;fontSize=12;" vertex="1" parent="205">
                    <mxGeometry y="554" width="360" height="26" as="geometry"/>
                </mxCell>
                <mxCell id="357" value="- belongs_to_active_hash :size" style="text;strokeColor=none;fillColor=none;spacingLeft=4;spacingRight=4;overflow=hidden;rotatable=0;points=[[0,0.5],[1,0.5]];portConstraint=eastwest;fontSize=12;" parent="205" vertex="1">
                    <mxGeometry y="580" width="360" height="26" as="geometry"/>
                </mxCell>
                <mxCell id="150" value="categories" style="swimlane;fontStyle=0;childLayout=stackLayout;horizontal=1;startSize=26;horizontalStack=0;resizeParent=1;resizeParentMax=0;resizeLast=0;collapsible=1;marginBottom=0;align=center;fontSize=14;" parent="1" vertex="1">
                    <mxGeometry x="1920" y="820" width="250" height="164" as="geometry"/>
                </mxCell>
                <mxCell id="299" value="category ( string / null: false )" style="text;strokeColor=none;fillColor=none;spacingLeft=4;spacingRight=4;overflow=hidden;rotatable=0;points=[[0,0.5],[1,0.5]];portConstraint=eastwest;fontSize=12;" parent="150" vertex="1">
                    <mxGeometry y="26" width="250" height="26" as="geometry"/>
                </mxCell>
                <mxCell id="461" value="ancestry ( string )" style="text;strokeColor=none;fillColor=none;spacingLeft=4;spacingRight=4;overflow=hidden;rotatable=0;points=[[0,0.5],[1,0.5]];portConstraint=eastwest;fontSize=12;" parent="150" vertex="1">
                    <mxGeometry y="52" width="250" height="26" as="geometry"/>
                </mxCell>
                <mxCell id="301" value="" style="line;strokeWidth=1;fillColor=none;align=left;verticalAlign=middle;spacingTop=-1;spacingLeft=3;spacingRight=3;rotatable=0;labelPosition=right;points=[];portConstraint=eastwest;fontSize=12;" parent="150" vertex="1">
                    <mxGeometry y="78" width="250" height="8" as="geometry"/>
                </mxCell>
                <mxCell id="300" value="- has_many :items" style="text;strokeColor=none;fillColor=none;spacingLeft=4;spacingRight=4;overflow=hidden;rotatable=0;points=[[0,0.5],[1,0.5]];portConstraint=eastwest;fontSize=12;" parent="150" vertex="1">
                    <mxGeometry y="86" width="250" height="26" as="geometry"/>
                </mxCell>
                <mxCell id="463" value="- has_many :category_size" style="text;strokeColor=none;fillColor=none;spacingLeft=4;spacingRight=4;overflow=hidden;rotatable=0;points=[[0,0.5],[1,0.5]];portConstraint=eastwest;fontSize=12;" parent="150" vertex="1">
                    <mxGeometry y="112" width="250" height="26" as="geometry"/>
                </mxCell>
                <mxCell id="462" value="- has_many :sizes, through: category_sizes" style="text;strokeColor=none;fillColor=none;spacingLeft=4;spacingRight=4;overflow=hidden;rotatable=0;points=[[0,0.5],[1,0.5]];portConstraint=eastwest;fontSize=12;" parent="150" vertex="1">
                    <mxGeometry y="138" width="250" height="26" as="geometry"/>
                </mxCell>
                <mxCell id="117" value="comments" style="swimlane;fontStyle=0;childLayout=stackLayout;horizontal=1;startSize=26;horizontalStack=0;resizeParent=1;resizeParentMax=0;resizeLast=0;collapsible=1;marginBottom=0;align=center;fontSize=14;fillColor=#1ba1e2;strokeColor=#006EAF;fontColor=#ffffff;" parent="1" vertex="1">
                    <mxGeometry x="1120" y="980" width="320" height="164" as="geometry">
                        <mxRectangle x="1080" y="720" width="100" height="26" as="alternateBounds"/>
                    </mxGeometry>
                </mxCell>
                <mxCell id="283" value="text ( text / null: false )" style="text;strokeColor=none;fillColor=none;spacingLeft=4;spacingRight=4;overflow=hidden;rotatable=0;points=[[0,0.5],[1,0.5]];portConstraint=eastwest;fontSize=12;" parent="117" vertex="1">
                    <mxGeometry y="26" width="320" height="26" as="geometry"/>
                </mxCell>
                <mxCell id="285" value="user_id ( references / null: false, foreign_key: true )" style="text;strokeColor=none;fillColor=none;spacingLeft=4;spacingRight=4;overflow=hidden;rotatable=0;points=[[0,0.5],[1,0.5]];portConstraint=eastwest;fontSize=12;" parent="117" vertex="1">
                    <mxGeometry y="52" width="320" height="26" as="geometry"/>
                </mxCell>
                <mxCell id="284" value="item_id ( references / null: false, foreign_key: true )" style="text;strokeColor=none;fillColor=none;spacingLeft=4;spacingRight=4;overflow=hidden;rotatable=0;points=[[0,0.5],[1,0.5]];portConstraint=eastwest;fontSize=12;" parent="117" vertex="1">
                    <mxGeometry y="78" width="320" height="26" as="geometry"/>
                </mxCell>
                <mxCell id="288" value="" style="line;strokeWidth=1;fillColor=none;align=left;verticalAlign=middle;spacingTop=-1;spacingLeft=3;spacingRight=3;rotatable=0;labelPosition=right;points=[];portConstraint=eastwest;fontSize=12;" parent="117" vertex="1">
                    <mxGeometry y="104" width="320" height="8" as="geometry"/>
                </mxCell>
                <mxCell id="286" value="- belongs_to :user" style="text;strokeColor=none;fillColor=none;spacingLeft=4;spacingRight=4;overflow=hidden;rotatable=0;points=[[0,0.5],[1,0.5]];portConstraint=eastwest;fontSize=12;" parent="117" vertex="1">
                    <mxGeometry y="112" width="320" height="26" as="geometry"/>
                </mxCell>
                <mxCell id="287" value="- belongs_to :item" style="text;strokeColor=none;fillColor=none;spacingLeft=4;spacingRight=4;overflow=hidden;rotatable=0;points=[[0,0.5],[1,0.5]];portConstraint=eastwest;fontSize=12;" parent="117" vertex="1">
                    <mxGeometry y="138" width="320" height="26" as="geometry"/>
                </mxCell>
                <mxCell id="139" value="orders" style="swimlane;fontStyle=0;childLayout=stackLayout;horizontal=1;startSize=26;horizontalStack=0;resizeParent=1;resizeParentMax=0;resizeLast=0;collapsible=1;marginBottom=0;align=center;fontSize=14;fillColor=#6a00ff;strokeColor=#3700CC;fontColor=#ffffff;" parent="1" vertex="1">
                    <mxGeometry x="1140" y="764" width="280" height="138" as="geometry"/>
                </mxCell>
                <mxCell id="296" value="user_id ( references / null: false, foreign_key: true )" style="text;strokeColor=none;fillColor=none;spacingLeft=4;spacingRight=4;overflow=hidden;rotatable=0;points=[[0,0.5],[1,0.5]];portConstraint=eastwest;fontSize=12;" parent="139" vertex="1">
                    <mxGeometry y="26" width="280" height="26" as="geometry"/>
                </mxCell>
                <mxCell id="297" value="item_id ( references / null: false, foreign_key: true )" style="text;strokeColor=none;fillColor=none;spacingLeft=4;spacingRight=4;overflow=hidden;rotatable=0;points=[[0,0.5],[1,0.5]];portConstraint=eastwest;fontSize=12;" parent="139" vertex="1">
                    <mxGeometry y="52" width="280" height="26" as="geometry"/>
                </mxCell>
                <mxCell id="298" value="" style="line;strokeWidth=1;fillColor=none;align=left;verticalAlign=middle;spacingTop=-1;spacingLeft=3;spacingRight=3;rotatable=0;labelPosition=right;points=[];portConstraint=eastwest;fontSize=12;" parent="139" vertex="1">
                    <mxGeometry y="78" width="280" height="8" as="geometry"/>
                </mxCell>
                <mxCell id="294" value="- belongs_to :user" style="text;strokeColor=none;fillColor=none;spacingLeft=4;spacingRight=4;overflow=hidden;rotatable=0;points=[[0,0.5],[1,0.5]];portConstraint=eastwest;fontSize=12;" parent="139" vertex="1">
                    <mxGeometry y="86" width="280" height="26" as="geometry"/>
                </mxCell>
                <mxCell id="293" value="- belongs_to :item" style="text;strokeColor=none;fillColor=none;spacingLeft=4;spacingRight=4;overflow=hidden;rotatable=0;points=[[0,0.5],[1,0.5]];portConstraint=eastwest;fontSize=12;" parent="139" vertex="1">
                    <mxGeometry y="112" width="280" height="26" as="geometry"/>
                </mxCell>
                <mxCell id="405" value="evaluations ( active_hash )" style="swimlane;fontStyle=0;childLayout=stackLayout;horizontal=1;startSize=22;horizontalStack=0;resizeParent=1;resizeParentMax=0;resizeLast=0;collapsible=1;marginBottom=0;align=center;fontSize=14;fillColor=#6a00ff;strokeColor=#3700CC;fontColor=#ffffff;" parent="1" vertex="1">
                    <mxGeometry x="260" y="1292" width="220" height="82" as="geometry"/>
                </mxCell>
                <mxCell id="406" value="evaluation ( string / null: false )" style="text;strokeColor=none;fillColor=none;spacingLeft=4;spacingRight=4;overflow=hidden;rotatable=0;points=[[0,0.5],[1,0.5]];portConstraint=eastwest;fontSize=12;" parent="405" vertex="1">
                    <mxGeometry y="22" width="220" height="26" as="geometry"/>
                </mxCell>
                <mxCell id="409" value="" style="line;strokeWidth=1;fillColor=none;align=left;verticalAlign=middle;spacingTop=-1;spacingLeft=3;spacingRight=3;rotatable=0;labelPosition=right;points=[];portConstraint=eastwest;fontSize=12;" parent="405" vertex="1">
                    <mxGeometry y="48" width="220" height="8" as="geometry"/>
                </mxCell>
                <mxCell id="407" value="has_many :user_evaluations" style="text;strokeColor=none;fillColor=none;spacingLeft=4;spacingRight=4;overflow=hidden;rotatable=0;points=[[0,0.5],[1,0.5]];portConstraint=eastwest;fontSize=12;" parent="405" vertex="1">
                    <mxGeometry y="56" width="220" height="26" as="geometry"/>
                </mxCell>
                <mxCell id="410" style="edgeStyle=orthogonalEdgeStyle;rounded=0;orthogonalLoop=1;jettySize=auto;html=1;exitX=1;exitY=0.5;exitDx=0;exitDy=0;entryX=0;entryY=0.5;entryDx=0;entryDy=0;endArrow=ERzeroToMany;endFill=1;" parent="1" source="406" target="305" edge="1">
                    <mxGeometry relative="1" as="geometry"/>
                </mxCell>
                <mxCell id="434" style="edgeStyle=orthogonalEdgeStyle;rounded=0;orthogonalLoop=1;jettySize=auto;html=1;exitX=0.25;exitY=0;exitDx=0;exitDy=0;entryX=0.669;entryY=0.962;entryDx=0;entryDy=0;entryPerimeter=0;endArrow=ERzeroToMany;endFill=1;" parent="1" source="416" target="357" edge="1">
                    <mxGeometry relative="1" as="geometry"/>
                </mxCell>
                <mxCell id="416" value="delivery_fees ( active_hash )" style="swimlane;fontStyle=0;childLayout=stackLayout;horizontal=1;startSize=22;horizontalStack=0;resizeParent=1;resizeParentMax=0;resizeLast=0;collapsible=1;marginBottom=0;align=center;fontSize=14;fillColor=#a0522d;strokeColor=#6D1F00;fontColor=#ffffff;" parent="1" vertex="1">
                    <mxGeometry x="1720" y="1480" width="240" height="82" as="geometry"/>
                </mxCell>
                <mxCell id="417" value="delivery_fee ( string / null: false )" style="text;strokeColor=none;fillColor=none;spacingLeft=4;spacingRight=4;overflow=hidden;rotatable=0;points=[[0,0.5],[1,0.5]];portConstraint=eastwest;fontSize=12;" parent="416" vertex="1">
                    <mxGeometry y="22" width="240" height="26" as="geometry"/>
                </mxCell>
                <mxCell id="420" value="" style="line;strokeWidth=1;fillColor=none;align=left;verticalAlign=middle;spacingTop=-1;spacingLeft=3;spacingRight=3;rotatable=0;labelPosition=right;points=[];portConstraint=eastwest;fontSize=12;" parent="416" vertex="1">
                    <mxGeometry y="48" width="240" height="8" as="geometry"/>
                </mxCell>
                <mxCell id="418" value="has_many :items" style="text;strokeColor=none;fillColor=none;spacingLeft=4;spacingRight=4;overflow=hidden;rotatable=0;points=[[0,0.5],[1,0.5]];portConstraint=eastwest;fontSize=12;" parent="416" vertex="1">
                    <mxGeometry y="56" width="240" height="26" as="geometry"/>
                </mxCell>
                <mxCell id="433" style="edgeStyle=orthogonalEdgeStyle;rounded=0;orthogonalLoop=1;jettySize=auto;html=1;exitX=0.5;exitY=0;exitDx=0;exitDy=0;entryX=0.219;entryY=0.962;entryDx=0;entryDy=0;entryPerimeter=0;endArrow=ERzeroToMany;endFill=1;" parent="1" source="411" target="357" edge="1">
                    <mxGeometry relative="1" as="geometry"/>
                </mxCell>
                <mxCell id="411" value="item_conditions ( active_hash )" style="swimlane;fontStyle=0;childLayout=stackLayout;horizontal=1;startSize=22;horizontalStack=0;resizeParent=1;resizeParentMax=0;resizeLast=0;collapsible=1;marginBottom=0;align=center;fontSize=14;fillColor=#a0522d;strokeColor=#6D1F00;fontColor=#ffffff;" parent="1" vertex="1">
                    <mxGeometry x="1440" y="1480" width="240" height="82" as="geometry"/>
                </mxCell>
                <mxCell id="412" value="conditon ( string / null: false )" style="text;strokeColor=none;fillColor=none;spacingLeft=4;spacingRight=4;overflow=hidden;rotatable=0;points=[[0,0.5],[1,0.5]];portConstraint=eastwest;fontSize=12;" parent="411" vertex="1">
                    <mxGeometry y="22" width="240" height="26" as="geometry"/>
                </mxCell>
                <mxCell id="415" value="" style="line;strokeWidth=1;fillColor=none;align=left;verticalAlign=middle;spacingTop=-1;spacingLeft=3;spacingRight=3;rotatable=0;labelPosition=right;points=[];portConstraint=eastwest;fontSize=12;" parent="411" vertex="1">
                    <mxGeometry y="48" width="240" height="8" as="geometry"/>
                </mxCell>
                <mxCell id="413" value="has_many :items" style="text;strokeColor=none;fillColor=none;spacingLeft=4;spacingRight=4;overflow=hidden;rotatable=0;points=[[0,0.5],[1,0.5]];portConstraint=eastwest;fontSize=12;" parent="411" vertex="1">
                    <mxGeometry y="56" width="240" height="26" as="geometry"/>
                </mxCell>
                <mxCell id="432" style="edgeStyle=orthogonalEdgeStyle;rounded=0;orthogonalLoop=1;jettySize=auto;html=1;exitX=0.75;exitY=0;exitDx=0;exitDy=0;endArrow=ERzeroToMany;endFill=1;" parent="1" source="427" target="360" edge="1">
                    <mxGeometry relative="1" as="geometry"/>
                </mxCell>
                <mxCell id="436" value="データを更新しない" style="whiteSpace=wrap;html=1;align=center;fillColor=#a0522d;strokeColor=#6D1F00;fontColor=#ffffff;" parent="1" vertex="1">
                    <mxGeometry x="1560" y="320" width="240" height="40" as="geometry"/>
                </mxCell>
                <mxCell id="438" value="中間テーブル" style="whiteSpace=wrap;html=1;align=center;fillColor=#1ba1e2;strokeColor=#006EAF;fontColor=#ffffff;" parent="1" vertex="1">
                    <mxGeometry x="1560" y="262" width="240" height="40" as="geometry"/>
                </mxCell>
                <mxCell id="439" value="データを更新する" style="whiteSpace=wrap;html=1;align=center;" parent="1" vertex="1">
                    <mxGeometry x="1560" y="377" width="240" height="40" as="geometry"/>
                </mxCell>
                <mxCell id="161" value="user_evaluations" style="swimlane;fontStyle=0;childLayout=stackLayout;horizontal=1;startSize=26;horizontalStack=0;resizeParent=1;resizeParentMax=0;resizeLast=0;collapsible=1;marginBottom=0;align=center;fontSize=14;fillColor=#6a00ff;strokeColor=#3700CC;fontColor=#ffffff;" parent="1" vertex="1">
                    <mxGeometry x="640" y="1390" width="400" height="216" as="geometry"/>
                </mxCell>
                <mxCell id="302" value="user_id ( references / null: false, foreign_key: true )" style="text;strokeColor=none;fillColor=none;spacingLeft=4;spacingRight=4;overflow=hidden;rotatable=0;points=[[0,0.5],[1,0.5]];portConstraint=eastwest;fontSize=12;" parent="161" vertex="1">
                    <mxGeometry y="26" width="400" height="26" as="geometry"/>
                </mxCell>
                <mxCell id="303" value="item_id ( references / null: false,foreign_key: true )" style="text;strokeColor=none;fillColor=none;spacingLeft=4;spacingRight=4;overflow=hidden;rotatable=0;points=[[0,0.5],[1,0.5]];portConstraint=eastwest;fontSize=12;" parent="161" vertex="1">
                    <mxGeometry y="52" width="400" height="26" as="geometry"/>
                </mxCell>
                <mxCell id="307" value="evaluation_id ( references / null: false, foreign_key: true )" style="text;strokeColor=none;fillColor=none;spacingLeft=4;spacingRight=4;overflow=hidden;rotatable=0;points=[[0,0.5],[1,0.5]];portConstraint=eastwest;fontSize=12;" parent="161" vertex="1">
                    <mxGeometry y="78" width="400" height="26" as="geometry"/>
                </mxCell>
                <mxCell id="308" value="review ( text )" style="text;strokeColor=none;fillColor=none;spacingLeft=4;spacingRight=4;overflow=hidden;rotatable=0;points=[[0,0.5],[1,0.5]];portConstraint=eastwest;fontSize=12;" parent="161" vertex="1">
                    <mxGeometry y="104" width="400" height="26" as="geometry"/>
                </mxCell>
                <mxCell id="309" value="" style="line;strokeWidth=1;fillColor=none;align=left;verticalAlign=middle;spacingTop=-1;spacingLeft=3;spacingRight=3;rotatable=0;labelPosition=right;points=[];portConstraint=eastwest;fontSize=12;" parent="161" vertex="1">
                    <mxGeometry y="130" width="400" height="8" as="geometry"/>
                </mxCell>
                <mxCell id="306" value="- belongs_to :user" style="text;strokeColor=none;fillColor=none;spacingLeft=4;spacingRight=4;overflow=hidden;rotatable=0;points=[[0,0.5],[1,0.5]];portConstraint=eastwest;fontSize=12;" parent="161" vertex="1">
                    <mxGeometry y="138" width="400" height="26" as="geometry"/>
                </mxCell>
                <mxCell id="305" value="- belongs_to :item" style="text;strokeColor=none;fillColor=none;spacingLeft=4;spacingRight=4;overflow=hidden;rotatable=0;points=[[0,0.5],[1,0.5]];portConstraint=eastwest;fontSize=12;" parent="161" vertex="1">
                    <mxGeometry y="164" width="400" height="26" as="geometry"/>
                </mxCell>
                <mxCell id="304" value="- belongs_to_active_hash :evaluation" style="text;strokeColor=none;fillColor=none;spacingLeft=4;spacingRight=4;overflow=hidden;rotatable=0;points=[[0,0.5],[1,0.5]];portConstraint=eastwest;fontSize=12;" parent="161" vertex="1">
                    <mxGeometry y="190" width="400" height="26" as="geometry"/>
                </mxCell>
                <mxCell id="194" value="news" style="swimlane;fontStyle=0;childLayout=stackLayout;horizontal=1;startSize=26;horizontalStack=0;resizeParent=1;resizeParentMax=0;resizeLast=0;collapsible=1;marginBottom=0;align=center;fontSize=14;fillColor=#6a00ff;strokeColor=#3700CC;fontColor=#ffffff;" parent="1" vertex="1">
                    <mxGeometry x="170" y="764" width="280" height="138" as="geometry"/>
                </mxCell>
                <mxCell id="318" value="title ( string / null: false )" style="text;strokeColor=none;fillColor=none;spacingLeft=4;spacingRight=4;overflow=hidden;rotatable=0;points=[[0,0.5],[1,0.5]];portConstraint=eastwest;fontSize=12;" parent="194" vertex="1">
                    <mxGeometry y="26" width="280" height="26" as="geometry"/>
                </mxCell>
                <mxCell id="320" value="text ( text / null: false )" style="text;strokeColor=none;fillColor=none;spacingLeft=4;spacingRight=4;overflow=hidden;rotatable=0;points=[[0,0.5],[1,0.5]];portConstraint=eastwest;fontSize=12;" parent="194" vertex="1">
                    <mxGeometry y="52" width="280" height="26" as="geometry"/>
                </mxCell>
                <mxCell id="321" value="user_id ( references / null: false, foreign_key: true )" style="text;strokeColor=none;fillColor=none;spacingLeft=4;spacingRight=4;overflow=hidden;rotatable=0;points=[[0,0.5],[1,0.5]];portConstraint=eastwest;fontSize=12;" parent="194" vertex="1">
                    <mxGeometry y="78" width="280" height="26" as="geometry"/>
                </mxCell>
                <mxCell id="322" value="" style="line;strokeWidth=1;fillColor=none;align=left;verticalAlign=middle;spacingTop=-1;spacingLeft=3;spacingRight=3;rotatable=0;labelPosition=right;points=[];portConstraint=eastwest;fontSize=12;" parent="194" vertex="1">
                    <mxGeometry y="104" width="280" height="8" as="geometry"/>
                </mxCell>
                <mxCell id="319" value="- belongs_to :user" style="text;strokeColor=none;fillColor=none;spacingLeft=4;spacingRight=4;overflow=hidden;rotatable=0;points=[[0,0.5],[1,0.5]];portConstraint=eastwest;fontSize=12;" parent="194" vertex="1">
                    <mxGeometry y="112" width="280" height="26" as="geometry"/>
                </mxCell>
                <mxCell id="183" value="brands" style="swimlane;fontStyle=0;childLayout=stackLayout;horizontal=1;startSize=26;horizontalStack=0;resizeParent=1;resizeParentMax=0;resizeLast=0;collapsible=1;marginBottom=0;align=center;fontSize=14;" parent="1" vertex="1">
                    <mxGeometry x="1920" y="996" width="160" height="86" as="geometry"/>
                </mxCell>
                <mxCell id="315" value="name ( string / null: false)" style="text;strokeColor=none;fillColor=none;spacingLeft=4;spacingRight=4;overflow=hidden;rotatable=0;points=[[0,0.5],[1,0.5]];portConstraint=eastwest;fontSize=12;" parent="183" vertex="1">
                    <mxGeometry y="26" width="160" height="26" as="geometry"/>
                </mxCell>
                <mxCell id="317" value="" style="line;strokeWidth=1;fillColor=none;align=left;verticalAlign=middle;spacingTop=-1;spacingLeft=3;spacingRight=3;rotatable=0;labelPosition=right;points=[];portConstraint=eastwest;fontSize=12;" parent="183" vertex="1">
                    <mxGeometry y="52" width="160" height="8" as="geometry"/>
                </mxCell>
                <mxCell id="316" value="- has_many :items" style="text;strokeColor=none;fillColor=none;spacingLeft=4;spacingRight=4;overflow=hidden;rotatable=0;points=[[0,0.5],[1,0.5]];portConstraint=eastwest;fontSize=12;" parent="183" vertex="1">
                    <mxGeometry y="60" width="160" height="26" as="geometry"/>
                </mxCell>
                <mxCell id="427" value="sizes ( acctive_hash )" style="swimlane;fontStyle=0;childLayout=stackLayout;horizontal=1;startSize=22;horizontalStack=0;resizeParent=1;resizeParentMax=0;resizeLast=0;collapsible=1;marginBottom=0;align=center;fontSize=14;fillColor=#a0522d;strokeColor=#6D1F00;fontColor=#ffffff;" parent="1" vertex="1">
                    <mxGeometry x="1200" y="1450" width="200" height="186" as="geometry"/>
                </mxCell>
                <mxCell id="428" value="size ( string / null: false )" style="text;strokeColor=none;fillColor=none;spacingLeft=4;spacingRight=4;overflow=hidden;rotatable=0;points=[[0,0.5],[1,0.5]];portConstraint=eastwest;fontSize=12;" parent="427" vertex="1">
                    <mxGeometry y="22" width="200" height="26" as="geometry"/>
                </mxCell>
                <mxCell id="464" value="ancestry ( string )" style="text;strokeColor=none;fillColor=none;spacingLeft=4;spacingRight=4;overflow=hidden;rotatable=0;points=[[0,0.5],[1,0.5]];portConstraint=eastwest;fontSize=12;" parent="427" vertex="1">
                    <mxGeometry y="48" width="200" height="26" as="geometry"/>
                </mxCell>
                <mxCell id="431" value="" style="line;strokeWidth=1;fillColor=none;align=left;verticalAlign=middle;spacingTop=-1;spacingLeft=3;spacingRight=3;rotatable=0;labelPosition=right;points=[];portConstraint=eastwest;fontSize=12;" parent="427" vertex="1">
                    <mxGeometry y="74" width="200" height="8" as="geometry"/>
                </mxCell>
                <mxCell id="465" value="has_many :items" style="text;strokeColor=none;fillColor=none;spacingLeft=4;spacingRight=4;overflow=hidden;rotatable=0;points=[[0,0.5],[1,0.5]];portConstraint=eastwest;fontSize=12;" parent="427" vertex="1">
                    <mxGeometry y="82" width="200" height="26" as="geometry"/>
                </mxCell>
                <mxCell id="467" value="has_many :category_sizes" style="text;strokeColor=none;fillColor=none;spacingLeft=4;spacingRight=4;overflow=hidden;rotatable=0;points=[[0,0.5],[1,0.5]];portConstraint=eastwest;fontSize=12;" parent="427" vertex="1">
                    <mxGeometry y="108" width="200" height="26" as="geometry"/>
                </mxCell>
                <mxCell id="468" value="- has_many :categories, through: category_sizes" style="text;strokeColor=none;fillColor=none;spacingLeft=4;spacingRight=4;overflow=hidden;rotatable=0;points=[[0,0.5],[1,0.5]];portConstraint=eastwest;fontSize=12;" parent="427" vertex="1">
                    <mxGeometry y="134" width="200" height="26" as="geometry"/>
                </mxCell>
                <mxCell id="429" value="has_ancestry" style="text;strokeColor=none;fillColor=none;spacingLeft=4;spacingRight=4;overflow=hidden;rotatable=0;points=[[0,0.5],[1,0.5]];portConstraint=eastwest;fontSize=12;" parent="427" vertex="1">
                    <mxGeometry y="160" width="200" height="26" as="geometry"/>
                </mxCell>
                <mxCell id="469" value="category_sizes" style="swimlane;fontStyle=0;childLayout=stackLayout;horizontal=1;startSize=26;horizontalStack=0;resizeParent=1;resizeParentMax=0;resizeLast=0;collapsible=1;marginBottom=0;align=center;fontSize=14;" vertex="1" parent="1">
                    <mxGeometry x="2030" y="1110" width="300" height="138" as="geometry"/>
                </mxCell>
                <mxCell id="470" value="seize_id ( references / null: false, foreign_key: true )" style="text;strokeColor=none;fillColor=none;spacingLeft=4;spacingRight=4;overflow=hidden;rotatable=0;points=[[0,0.5],[1,0.5]];portConstraint=eastwest;fontSize=12;" vertex="1" parent="469">
                    <mxGeometry y="26" width="300" height="26" as="geometry"/>
                </mxCell>
                <mxCell id="476" value="category_id ( references / null: false, foreign_key: true )" style="text;strokeColor=none;fillColor=none;spacingLeft=4;spacingRight=4;overflow=hidden;rotatable=0;points=[[0,0.5],[1,0.5]];portConstraint=eastwest;fontSize=12;" vertex="1" parent="469">
                    <mxGeometry y="52" width="300" height="26" as="geometry"/>
                </mxCell>
                <mxCell id="472" value="" style="line;strokeWidth=1;fillColor=none;align=left;verticalAlign=middle;spacingTop=-1;spacingLeft=3;spacingRight=3;rotatable=0;labelPosition=right;points=[];portConstraint=eastwest;fontSize=12;" vertex="1" parent="469">
                    <mxGeometry y="78" width="300" height="8" as="geometry"/>
                </mxCell>
                <mxCell id="474" value="- belongs_to :category" style="text;strokeColor=none;fillColor=none;spacingLeft=4;spacingRight=4;overflow=hidden;rotatable=0;points=[[0,0.5],[1,0.5]];portConstraint=eastwest;fontSize=12;" vertex="1" parent="469">
                    <mxGeometry y="86" width="300" height="26" as="geometry"/>
                </mxCell>
                <mxCell id="475" value="- belongs_to :size" style="text;strokeColor=none;fillColor=none;spacingLeft=4;spacingRight=4;overflow=hidden;rotatable=0;points=[[0,0.5],[1,0.5]];portConstraint=eastwest;fontSize=12;" vertex="1" parent="469">
                    <mxGeometry y="112" width="300" height="26" as="geometry"/>
                </mxCell>
                <mxCell id="478" value="未実装" style="whiteSpace=wrap;html=1;align=center;fillColor=#6a00ff;strokeColor=#3700CC;fontColor=#ffffff;" vertex="1" parent="1">
                    <mxGeometry x="1560" y="200" width="240" height="40" as="geometry"/>
                </mxCell>
                <mxCell id="481" style="edgeStyle=orthogonalEdgeStyle;rounded=0;orthogonalLoop=1;jettySize=auto;html=1;exitX=1;exitY=0.5;exitDx=0;exitDy=0;entryX=0.818;entryY=-0.022;entryDx=0;entryDy=0;entryPerimeter=0;endArrow=ERzeroToMany;endFill=1;" edge="1" parent="1" source="461" target="469">
                    <mxGeometry relative="1" as="geometry"/>
                </mxCell>
                <mxCell id="482" style="edgeStyle=orthogonalEdgeStyle;rounded=0;orthogonalLoop=1;jettySize=auto;html=1;exitX=1;exitY=0.5;exitDx=0;exitDy=0;entryX=0.006;entryY=1.097;entryDx=0;entryDy=0;entryPerimeter=0;endArrow=ERzeroToMany;endFill=1;" edge="1" parent="1" source="351" target="476">
                    <mxGeometry relative="1" as="geometry"/>
                </mxCell>
                <mxCell id="489" style="edgeStyle=orthogonalEdgeStyle;rounded=0;orthogonalLoop=1;jettySize=auto;html=1;exitX=0.25;exitY=0;exitDx=0;exitDy=0;entryX=1;entryY=0.133;entryDx=0;entryDy=0;entryPerimeter=0;endArrow=ERzeroToMany;endFill=1;" edge="1" parent="1" source="421" target="357">
                    <mxGeometry relative="1" as="geometry">
                        <Array as="points">
                            <mxPoint x="1980" y="1340"/>
                            <mxPoint x="1980" y="1243"/>
                        </Array>
                    </mxGeometry>
                </mxCell>
                <mxCell id="421" value="preparation_days ( active_hash )" style="swimlane;fontStyle=0;childLayout=stackLayout;horizontal=1;startSize=22;horizontalStack=0;resizeParent=1;resizeParentMax=0;resizeLast=0;collapsible=1;marginBottom=0;align=center;fontSize=14;fillColor=#a0522d;strokeColor=#6D1F00;fontColor=#ffffff;" parent="1" vertex="1">
                    <mxGeometry x="2020" y="1340" width="240" height="82" as="geometry"/>
                </mxCell>
                <mxCell id="422" value="preparation_day ( string / null: false )" style="text;strokeColor=none;fillColor=none;spacingLeft=4;spacingRight=4;overflow=hidden;rotatable=0;points=[[0,0.5],[1,0.5]];portConstraint=eastwest;fontSize=12;" parent="421" vertex="1">
                    <mxGeometry y="22" width="240" height="26" as="geometry"/>
                </mxCell>
                <mxCell id="426" value="" style="line;strokeWidth=1;fillColor=none;align=left;verticalAlign=middle;spacingTop=-1;spacingLeft=3;spacingRight=3;rotatable=0;labelPosition=right;points=[];portConstraint=eastwest;fontSize=12;" parent="421" vertex="1">
                    <mxGeometry y="48" width="240" height="8" as="geometry"/>
                </mxCell>
                <mxCell id="423" value="has_many :items" style="text;strokeColor=none;fillColor=none;spacingLeft=4;spacingRight=4;overflow=hidden;rotatable=0;points=[[0,0.5],[1,0.5]];portConstraint=eastwest;fontSize=12;" parent="421" vertex="1">
                    <mxGeometry y="56" width="240" height="26" as="geometry"/>
                </mxCell>
                <mxCell id="487" style="edgeStyle=orthogonalEdgeStyle;rounded=0;orthogonalLoop=1;jettySize=auto;html=1;exitX=0.25;exitY=0;exitDx=0;exitDy=0;entryX=0.916;entryY=1.038;entryDx=0;entryDy=0;entryPerimeter=0;endArrow=ERzeroToMany;endFill=1;" edge="1" parent="1" source="483" target="357">
                    <mxGeometry relative="1" as="geometry">
                        <Array as="points">
                            <mxPoint x="1990" y="1480"/>
                            <mxPoint x="1990" y="1373"/>
                            <mxPoint x="1810" y="1373"/>
                        </Array>
                    </mxGeometry>
                </mxCell>
                <mxCell id="483" value="prefecture ( active_hash )" style="swimlane;fontStyle=0;childLayout=stackLayout;horizontal=1;startSize=22;horizontalStack=0;resizeParent=1;resizeParentMax=0;resizeLast=0;collapsible=1;marginBottom=0;align=center;fontSize=14;fillColor=#a0522d;strokeColor=#6D1F00;fontColor=#ffffff;" vertex="1" parent="1">
                    <mxGeometry x="2000" y="1480" width="240" height="82" as="geometry"/>
                </mxCell>
                <mxCell id="484" value="prefecture ( string / null: false )" style="text;strokeColor=none;fillColor=none;spacingLeft=4;spacingRight=4;overflow=hidden;rotatable=0;points=[[0,0.5],[1,0.5]];portConstraint=eastwest;fontSize=12;" vertex="1" parent="483">
                    <mxGeometry y="22" width="240" height="26" as="geometry"/>
                </mxCell>
                <mxCell id="485" value="" style="line;strokeWidth=1;fillColor=none;align=left;verticalAlign=middle;spacingTop=-1;spacingLeft=3;spacingRight=3;rotatable=0;labelPosition=right;points=[];portConstraint=eastwest;fontSize=12;" vertex="1" parent="483">
                    <mxGeometry y="48" width="240" height="8" as="geometry"/>
                </mxCell>
                <mxCell id="486" value="has_many :items" style="text;strokeColor=none;fillColor=none;spacingLeft=4;spacingRight=4;overflow=hidden;rotatable=0;points=[[0,0.5],[1,0.5]];portConstraint=eastwest;fontSize=12;" vertex="1" parent="483">
                    <mxGeometry y="56" width="240" height="26" as="geometry"/>
                </mxCell>
            </root>
        </mxGraphModel>
    </diagram>
</mxfile>